<svg width="155" height="155" viewBox="0 0 155 155" fill="none" xmlns="http://www.w3.org/2000/svg">
<g clip-path="url(#clip0_3551_25)">
<path d="M77.1094 153.441C119.083 153.441 153.109 119.415 153.109 77.4414C153.109 35.4678 119.083 1.44141 77.1094 1.44141C35.1357 1.44141 1.10938 35.4678 1.10938 77.4414C1.10938 119.415 35.1357 153.441 77.1094 153.441Z" fill="#2F352B" stroke="white" stroke-width="2"/>
<path d="M82.6478 21.7433C79.6245 21.4705 77.8893 19.2599 78.1443 16.4338C78.3993 13.6076 80.5023 11.7434 83.5256 12.0162C86.2203 12.2594 87.8393 13.8499 87.8933 16.0414L85.6324 15.8373C85.4895 14.7776 84.6813 14.042 83.3668 13.9234C81.6317 13.7668 80.5283 14.8334 80.3658 16.6342C80.2033 18.4351 81.0979 19.682 82.833 19.8385C84.1475 19.9572 85.0743 19.3782 85.4046 18.3611L87.6655 18.5652C87.2201 20.7115 85.3425 21.9865 82.6478 21.7433Z" fill="white"/>
<path d="M91.0996 23.1521C88.9792 22.6012 88.0313 20.8958 88.5192 19.018C89.0071 17.1403 90.6652 16.112 92.7856 16.6629C94.8934 17.2105 95.8412 18.9159 95.3533 20.7937C94.8654 22.6714 93.2074 23.6997 91.0996 23.1521ZM91.5278 21.5043C92.4475 21.7432 93.1694 21.2217 93.4117 20.2892C93.6539 19.3567 93.2772 18.5497 92.3575 18.3108C91.425 18.0685 90.7159 18.5933 90.4736 19.5258C90.2314 20.4583 90.5953 21.262 91.5278 21.5043Z" fill="white"/>
<path d="M98.0586 25.2514L96.2002 24.4615L98.6887 18.6069L100.547 19.3968L100.186 20.2471C100.805 19.7357 101.622 19.6675 102.509 20.0443C103.93 20.6484 104.306 21.7547 103.63 23.3459L102.091 26.9655L100.221 26.1704L101.501 23.1581C101.919 22.1742 101.831 21.6061 101.078 21.286C100.337 20.971 99.7417 21.2917 99.3597 22.1905L98.0586 25.2514Z" fill="white"/>
<path d="M107.274 28.1183C107.469 28.2291 107.728 28.3611 107.902 28.4294L107.107 29.8294C106.828 29.7319 106.389 29.5432 105.884 29.2563C105.058 28.787 104.026 27.958 105.075 26.1104L106.327 23.907L105.455 23.4116L106.244 22.023L107.116 22.5184L108.048 20.8774L109.804 21.8748L108.872 23.5158L110.122 24.2264L109.334 25.6149L108.083 24.9044L107.04 26.7405C106.577 27.5553 106.838 27.8706 107.274 28.1183Z" fill="white"/>
<path d="M109.601 31.7913C108.062 30.6768 108.018 28.8692 109.141 27.319C110.255 25.7796 112.058 25.2924 113.555 26.376C114.303 26.9178 114.636 27.6962 114.534 28.4213L115.068 27.6837L116.693 28.8601L112.963 34.013L111.338 32.8365L111.864 32.1096C111.215 32.4215 110.318 32.3099 109.601 31.7913ZM111.055 30.7742C111.867 31.3624 112.725 31.0549 113.267 30.3065C113.801 29.5689 113.825 28.6577 113.013 28.0695C112.254 27.5199 111.373 27.746 110.808 28.5264C110.243 29.3068 110.296 30.2247 111.055 30.7742Z" fill="white"/>
<path d="M115.857 36.9862C114.344 35.5316 114.336 33.6556 115.726 32.2096C117.117 30.7635 118.992 30.6988 120.504 32.1534C121.874 33.4707 122.073 35.0536 121.09 36.305L119.634 34.9054C119.941 34.3766 119.857 33.9115 119.325 33.3993C118.697 32.7955 117.914 32.8482 117.182 33.6092C116.45 34.3703 116.428 35.1548 117.056 35.7586C117.589 36.2709 118.047 36.3459 118.536 36.047L119.992 37.4466C118.807 38.4499 117.227 38.3035 115.857 36.9862Z" fill="white"/>
<path d="M122.741 41.9834C122.884 42.1558 123.08 42.3704 123.219 42.4954L121.982 43.5262C121.755 43.337 121.411 43.0058 121.039 42.5596C120.431 41.8296 119.756 40.6906 121.389 39.3303L123.336 37.7081L122.693 36.9375L123.92 35.9152L124.562 36.6857L126.012 35.4775L127.305 37.0288L125.855 38.237L126.776 39.3422L125.549 40.3646L124.628 39.2594L123.006 40.6113C122.286 41.2111 122.42 41.5981 122.741 41.9834Z" fill="white"/>
<path d="M126.128 50.4808C125.052 48.4816 125.434 46.6279 127.328 45.6087L132.71 42.7139L133.717 44.5852L128.451 47.4175C127.521 47.9177 127.298 48.757 127.755 49.6055C128.218 50.4656 129.034 50.7305 129.964 50.2304L135.23 47.398L136.243 49.281L130.861 52.1758C128.966 53.195 127.203 52.48 126.128 50.4808Z" fill="white"/>
<path d="M129.93 58.831C129.334 57.1238 129.736 55.7116 130.907 55.3029L131.568 57.197C131.157 57.3405 131.009 57.8392 131.214 58.4249C131.357 58.8362 131.656 59.0532 132.005 58.9315C132.28 58.8358 132.394 58.6422 132.34 58.0878L132.212 56.7205C132.114 55.6784 132.534 54.917 133.443 54.5996C134.577 54.2039 135.682 54.9649 136.221 56.5101C136.812 58.2048 136.495 59.4197 135.299 59.8371L134.642 57.9555C135.066 57.8076 135.182 57.4178 135.003 56.9069C134.86 56.4957 134.565 56.2911 134.278 56.3911C134.004 56.4868 133.89 56.7221 133.935 57.2516L134.03 58.6444C134.111 59.6784 133.738 60.4517 132.828 60.7691C131.582 61.2039 130.486 60.4261 129.93 58.831Z" fill="white"/>
<path d="M142.802 69.3121L140.413 69.3781L141.41 71.6645L139.832 72.0974L139.373 69.9493L137.676 71.6379L136.702 70.2942L138.564 69.0224L136.455 68.4231L137.004 66.8143L139.096 67.9623L138.966 65.7817L140.595 65.8081L140.252 68.2278L142.569 67.6389L142.802 69.3121Z" fill="white"/>
<path d="M132.753 82.5662C133.003 79.541 135.201 77.7895 138.029 78.0238C140.857 78.2581 142.736 80.3473 142.486 83.3725C142.262 86.0689 140.684 87.6995 138.493 87.7696L138.68 85.5073C139.739 85.3566 140.469 84.543 140.578 83.2277C140.721 81.4915 139.647 80.3959 137.845 80.2467C136.043 80.0974 134.802 81.0011 134.659 82.7373C134.55 84.0526 135.135 84.9752 136.155 85.2981L135.967 87.5604C133.818 87.1307 132.529 85.2626 132.753 82.5662Z" fill="white"/>
<path d="M131.408 91.0268C131.943 88.9022 133.641 87.9417 135.523 88.4155C137.404 88.8894 138.445 90.5397 137.91 92.6643C137.378 94.776 135.679 95.7366 133.798 95.2627C131.917 94.7889 130.876 93.1385 131.408 91.0268ZM133.059 91.4426C132.827 92.3641 133.354 93.082 134.288 93.3173C135.222 93.5527 136.026 93.1699 136.259 92.2484C136.494 91.3142 135.964 90.609 135.029 90.3737C134.095 90.1384 133.294 90.5083 133.059 91.4426Z" fill="white"/>
<path d="M129.36 98.0063L130.136 96.1421L136.009 98.5874L135.232 100.452L134.38 100.096C134.895 100.712 134.97 101.529 134.599 102.418C134.006 103.844 132.902 104.228 131.306 103.563L127.675 102.051L128.457 100.175L131.478 101.433C132.465 101.844 133.033 101.752 133.347 100.996C133.657 100.253 133.332 99.6601 132.43 99.2847L129.36 98.0063Z" fill="white"/>
<path d="M126.56 107.24C126.451 107.436 126.321 107.696 126.254 107.87L124.848 107.085C124.944 106.806 125.129 106.366 125.412 105.858C125.875 105.029 126.697 103.991 128.552 105.027L130.765 106.262L131.254 105.386L132.648 106.165L132.159 107.041L133.807 107.961L132.822 109.724L131.175 108.804L130.473 110.06L129.079 109.281L129.78 108.025L127.936 106.996C127.118 106.539 126.805 106.802 126.56 107.24Z" fill="white"/>
<path d="M122.906 109.594C124.009 108.046 125.816 107.989 127.375 109.1C128.922 110.203 129.423 112.002 128.35 113.507C127.814 114.259 127.038 114.598 126.312 114.502L127.054 115.03L125.889 116.664L120.709 112.971L121.873 111.338L122.604 111.859C122.288 111.212 122.393 110.314 122.906 109.594ZM123.934 111.04C123.351 111.856 123.665 112.712 124.418 113.249C125.159 113.777 126.071 113.795 126.653 112.978C127.197 112.215 126.964 111.336 126.18 110.777C125.395 110.217 124.478 110.277 123.934 111.04Z" fill="white"/>
<path d="M117.756 115.889C119.199 114.366 121.075 114.344 122.532 115.723C123.988 117.103 124.066 118.978 122.623 120.501C121.315 121.88 119.734 122.091 118.475 121.117L119.864 119.651C120.395 119.954 120.86 119.867 121.368 119.33C121.967 118.698 121.909 117.915 121.143 117.189C120.376 116.463 119.591 116.447 118.992 117.079C118.484 117.615 118.412 118.075 118.715 118.562L117.326 120.027C116.314 118.85 116.449 117.269 117.756 115.889Z" fill="white"/>
<path d="M112.809 122.808C112.638 122.953 112.424 123.15 112.3 123.29L111.261 122.06C111.448 121.832 111.777 121.485 112.22 121.11C112.946 120.497 114.08 119.814 115.452 121.436L117.088 123.371L117.854 122.723L118.886 123.943L118.12 124.591L119.339 126.032L117.797 127.336L116.578 125.895L115.48 126.824L114.448 125.604L115.547 124.675L114.183 123.063C113.578 122.348 113.192 122.484 112.809 122.808Z" fill="white"/>
<path d="M104.338 126.257C106.329 125.167 108.186 125.535 109.219 127.422L112.153 132.782L110.289 133.803L107.418 128.558C106.911 127.632 106.07 127.416 105.225 127.878C104.369 128.347 104.11 129.166 104.617 130.092L107.488 135.336L105.612 136.363L102.678 131.003C101.645 129.116 102.347 127.348 104.338 126.257Z" fill="white"/>
<path d="M96.013 130.121C97.7158 129.513 99.131 129.904 99.5483 131.073L97.6591 131.748C97.5126 131.337 97.0128 131.194 96.4286 131.402C96.0184 131.549 95.8036 131.85 95.9279 132.198C96.0256 132.471 96.2201 132.584 96.7741 132.526L98.1404 132.389C99.1818 132.283 99.9462 132.697 100.271 133.604C100.675 134.735 99.9216 135.845 98.3804 136.395C96.6901 136.999 95.4729 136.691 95.0466 135.498L96.9234 134.827C97.0744 135.25 97.465 135.363 97.9746 135.181C98.3847 135.034 98.5871 134.738 98.485 134.452C98.3873 134.178 98.1512 134.067 97.622 134.115L96.23 134.22C95.1966 134.309 94.4206 133.942 94.0965 133.034C93.6525 131.791 94.4221 130.69 96.013 130.121Z" fill="white"/>
<path d="M85.6267 143.069L85.5432 140.681L83.2642 141.695L82.8198 140.12L84.9645 139.645L83.2635 137.96L84.6 136.977L85.8854 138.83L86.4693 136.716L88.082 137.254L86.9494 139.354L89.1289 139.208L89.1144 140.837L86.6924 140.512L87.2982 142.824L85.6267 143.069Z" fill="white"/>
<path d="M72.3038 133.118C75.3307 133.347 77.0983 135.531 76.8848 138.361C76.6713 141.191 74.5959 143.085 71.5689 142.857C68.871 142.654 67.2288 141.087 67.1426 138.897L69.4063 139.067C69.5647 140.125 70.3837 140.849 71.6998 140.948C73.437 141.079 74.5246 139.996 74.6606 138.193C74.7967 136.39 73.8838 135.157 72.1466 135.025C70.8305 134.926 69.9123 135.519 69.5969 136.54L67.3333 136.37C67.7472 134.217 69.6058 132.915 72.3038 133.118Z" fill="white"/>
<path d="M63.8352 131.838C65.9637 132.357 66.9368 134.048 66.4771 135.933C66.0173 137.817 64.3749 138.87 62.2464 138.351C60.1307 137.835 59.1575 136.144 59.6173 134.259C60.077 132.374 61.7196 131.321 63.8352 131.838ZM63.4318 133.492C62.5086 133.266 61.7946 133.799 61.5662 134.735C61.3379 135.671 61.7266 136.472 62.6498 136.697C63.5859 136.925 64.2869 136.39 64.5153 135.454C64.7436 134.518 64.3678 133.72 63.4318 133.492Z" fill="white"/>
<path d="M56.8344 129.838L58.7043 130.601L56.3022 136.492L54.4324 135.729L54.7812 134.874C54.1699 135.394 53.3532 135.474 52.4611 135.11C51.0312 134.527 50.6391 133.427 51.2919 131.826L52.777 128.184L54.6591 128.951L53.4231 131.982C53.0195 132.972 53.1162 133.539 53.8739 133.848C54.6194 134.152 55.2098 133.823 55.5786 132.918L56.8344 129.838Z" fill="white"/>
<path d="M47.5836 127.11C47.3869 127.002 47.126 126.874 46.9513 126.808L47.7259 125.396C48.0058 125.49 48.4478 125.672 48.9569 125.951C49.79 126.408 50.8339 127.222 49.8117 129.085L48.5927 131.307L49.4721 131.789L48.7039 133.189L47.8245 132.707L46.9166 134.361L45.1463 133.39L46.0542 131.735L44.793 131.043L45.5612 129.643L46.8224 130.335L47.8382 128.484C48.289 127.662 48.0233 127.351 47.5836 127.11Z" fill="white"/>
<path d="M45.2026 123.471C46.7583 124.562 46.8286 126.369 45.7293 127.936C44.6376 129.491 42.8421 130.005 41.3296 128.944C40.5734 128.413 40.2294 127.639 40.32 126.913L39.7969 127.658L38.1548 126.506L41.8091 121.299L43.4512 122.451L42.9356 123.186C43.5804 122.864 44.4788 122.963 45.2026 123.471ZM43.7644 124.509C42.9434 123.933 42.0899 124.253 41.5592 125.009C41.0361 125.755 41.0253 126.666 41.8463 127.242C42.6134 127.781 43.4905 127.542 44.044 126.753C44.5974 125.964 44.5315 125.047 43.7644 124.509Z" fill="white"/>
<path d="M38.8704 118.367C40.4041 119.8 40.4404 121.675 39.0712 123.142C37.702 124.608 35.8281 124.7 34.2944 123.268C32.9053 121.971 32.6832 120.391 33.6484 119.125L35.1242 120.503C34.825 121.037 34.9156 121.5 35.4558 122.005C36.0924 122.599 36.8746 122.535 37.5952 121.763C38.3159 120.992 38.3265 120.207 37.6898 119.612C37.1496 119.108 36.6897 119.04 36.2053 119.346L34.7294 117.968C35.8991 116.947 37.4813 117.07 38.8704 118.367Z" fill="white"/>
<path d="M31.915 113.472C31.7689 113.302 31.5698 113.09 31.4294 112.967L32.6511 111.918C32.8803 112.104 33.2298 112.43 33.6081 112.871C34.2271 113.592 34.9179 114.721 33.3056 116.105L31.3829 117.755L32.0362 118.517L30.8245 119.557L30.1712 118.796L28.7391 120.025L27.4238 118.493L28.8558 117.264L27.9188 116.172L29.1305 115.132L30.0676 116.223L31.6699 114.848C32.3809 114.237 32.2417 113.852 31.915 113.472Z" fill="white"/>
<path d="M28.4013 105.027C29.5061 107.01 29.1519 108.87 27.2726 109.917L21.9344 112.891L20.9002 111.034L26.1231 108.125C27.0455 107.611 27.256 106.768 26.7871 105.927C26.3118 105.073 25.4911 104.821 24.5687 105.334L19.3458 108.244L18.3052 106.376L23.6434 103.402C25.5228 102.355 27.2965 103.044 28.4013 105.027Z" fill="white"/>
<path d="M24.4767 96.7291C25.0975 98.4273 24.7166 99.8453 23.5514 100.271L22.8626 98.3872C23.2716 98.2376 23.4117 97.7367 23.1987 97.1541C23.0492 96.7451 22.7466 96.5325 22.3995 96.6594C22.1268 96.759 22.0155 96.9543 22.0774 97.5079L22.2252 98.8731C22.3386 99.9137 21.9306 100.681 21.0257 101.012C19.8977 101.424 18.7824 100.68 18.2204 99.1428C17.6041 97.4569 17.9031 96.2375 19.0931 95.8024L19.7774 97.6742C19.3559 97.8283 19.2461 98.2197 19.4319 98.728C19.5814 99.137 19.8795 99.3372 20.1646 99.233C20.4373 99.1333 20.5474 98.8963 20.4946 98.3676L20.3794 96.9763C20.2829 95.9436 20.6447 95.1649 21.5496 94.8341C22.7892 94.3809 23.8966 95.1424 24.4767 96.7291Z" fill="white"/>
<path d="M11.4512 86.4334L13.8394 86.3325L12.8082 84.061L14.3805 83.605L14.8707 85.7462L16.543 84.0329L17.5358 85.3622L15.6928 86.6611L17.8102 87.2295L17.2848 88.8462L15.1763 87.7289L15.3384 89.9073L13.7089 89.9047L14.0163 87.4803L11.7085 88.1031L11.4512 86.4334Z" fill="white"/>
<path d="M21.3067 73.0463C21.1005 76.0748 18.9287 77.8584 16.0976 77.6657C13.2666 77.473 11.3564 75.4116 11.5626 72.383C11.7463 69.6837 13.3008 68.03 15.4905 67.9277L15.3363 70.1926C14.28 70.3588 13.5624 71.1831 13.4728 72.4998C13.3545 74.238 14.4451 75.3176 16.2491 75.4404C18.0531 75.5631 19.2799 74.6413 19.3983 72.9031C19.4879 71.5864 18.8886 70.6725 17.8645 70.3647L18.0187 68.0998C20.1743 68.4979 21.4904 70.3469 21.3067 73.0463Z" fill="white"/>
<path d="M22.5243 64.5701C22.021 66.7024 20.3374 67.6883 18.4491 67.2426C16.5609 66.7969 15.4957 65.1623 15.9989 63.03C16.4992 60.9106 18.1828 59.9247 20.0711 60.3704C21.9593 60.8161 23.0245 62.4507 22.5243 64.5701ZM20.8673 64.179C21.0856 63.2542 20.548 62.5442 19.6103 62.3229C18.6726 62.1016 17.8742 62.4963 17.656 63.4211C17.4346 64.3588 17.9753 65.056 18.913 65.2773C19.8507 65.4986 20.646 65.1168 20.8673 64.179Z" fill="white"/>
<path d="M24.4732 57.5481L23.7245 59.4235L17.8164 57.0648L18.5651 55.1894L19.4231 55.532C18.8982 54.9245 18.8119 54.1084 19.1691 53.2136C19.7417 51.7795 20.8394 51.3793 22.4451 52.0203L26.0978 53.4786L25.3442 55.3663L22.3044 54.1527C21.3115 53.7563 20.7454 53.8572 20.442 54.6171C20.1435 55.3648 20.4772 55.9528 21.3843 56.3149L24.4732 57.5481Z" fill="white"/>
<path d="M27.1328 48.2786C27.2393 48.0811 27.3655 47.8192 27.4299 47.6441L28.8472 48.4082C28.7559 48.6888 28.5769 49.1321 28.3013 49.6433C27.8503 50.4797 27.0444 51.5296 25.174 50.5212L22.9435 49.3187L22.4675 50.2016L21.0618 49.4437L21.5378 48.5608L19.8765 47.6651L20.8348 45.8877L22.4961 46.7833L23.1788 45.5171L24.5845 46.2749L23.9018 47.5412L25.7605 48.5433C26.5854 48.988 26.8948 48.72 27.1328 48.2786Z" fill="white"/>
<path d="M30.7513 45.8731C29.6711 47.4367 27.8648 47.5203 26.2903 46.4326C24.7266 45.3523 24.1998 43.5607 25.25 42.0405C25.7751 41.2803 26.5461 40.9307 27.2732 41.0159L26.524 40.4983L27.6642 38.8477L32.8982 42.4636L31.7579 44.1141L31.0195 43.604C31.3457 44.2464 31.254 45.1455 30.7513 45.8731ZM29.7023 44.4425C30.2725 43.6173 29.9461 42.7662 29.186 42.2411C28.4367 41.7234 27.5252 41.7193 26.955 42.5446C26.4224 43.3156 26.6679 44.191 27.4606 44.7386C28.2533 45.2862 29.1697 45.2135 29.7023 44.4425Z" fill="white"/>
<path d="M35.8095 39.503C34.3885 41.0472 32.5131 41.0971 31.0369 39.7387C29.5607 38.3802 29.4549 36.5072 30.8759 34.963C32.1628 33.5645 33.741 33.3308 35.0137 34.2867L33.6463 35.7726C33.1109 35.4773 32.6478 35.5712 32.1474 36.1151C31.5575 36.7561 31.6273 37.5378 32.4043 38.2527C33.1812 38.9677 33.9661 38.9725 34.5559 38.3315C35.0564 37.7876 35.1213 37.3272 34.8117 36.845L36.1791 35.3591C37.2081 36.5213 37.0964 38.1045 35.8095 39.503Z" fill="white"/>
<path d="M40.6549 32.5109C40.824 32.3635 41.0343 32.1629 41.1563 32.0216L42.214 33.2356C42.0298 33.4661 41.7062 33.8181 41.2683 34.1995C40.5519 34.8238 39.428 35.5229 38.0321 33.9208L36.3675 32.0102L35.6112 32.6691L34.5622 31.465L35.3184 30.8061L34.0786 29.3831L35.6012 28.0566L36.841 29.4796L37.9256 28.5346L38.9747 29.7386L37.89 30.6837L39.2772 32.2758C39.8928 32.9824 40.2767 32.8404 40.6549 32.5109Z" fill="white"/>
<path d="M49.0738 28.937C47.0989 30.0564 45.2372 29.7159 44.1763 27.8444L41.1631 22.5282L43.0117 21.4804L45.9599 26.6818C46.4805 27.6003 47.3245 27.8046 48.1627 27.3295C49.0124 26.8479 49.2592 26.0253 48.7385 25.1068L45.7903 19.9054L47.6504 18.8511L50.6637 24.1673C51.7245 26.0389 51.0487 27.8176 49.0738 28.937Z" fill="white"/>
<path d="M57.3437 24.9496C55.6501 25.5829 54.2293 25.2125 53.7947 24.0504L55.6738 23.3477C55.8263 23.7557 56.3282 23.892 56.9092 23.6748C57.3172 23.5222 57.5276 23.2181 57.3981 22.8719C57.2964 22.6 57.1003 22.4901 56.5472 22.5561L55.1831 22.7139C54.1434 22.835 53.3729 22.4327 53.0355 21.5303C52.6147 20.4054 53.351 19.2845 54.8839 18.7113C56.5652 18.0825 57.7868 18.3725 58.2306 19.5592L56.3639 20.2573C56.2068 19.837 55.8145 19.7301 55.3076 19.9196C54.8997 20.0722 54.7017 20.3717 54.808 20.656C54.9097 20.928 55.1475 21.0363 55.6759 20.9796L57.0663 20.8542C58.0982 20.7501 58.8795 21.1061 59.217 22.0085C59.6793 23.2447 58.9261 24.3578 57.3437 24.9496Z" fill="white"/>
<path d="M67.5441 11.8472L67.6625 14.2346L69.9264 13.1869L70.3939 14.7558L68.2563 15.2617L69.9818 16.9214L68.6598 17.9238L67.3474 16.0904L66.7946 18.2119L65.1741 17.6983L66.2759 15.5817L64.0987 15.7598L64.0894 14.1302L66.516 14.4199L65.8764 12.1168L67.5441 11.8472Z" fill="white"/>
<path d="M77.1094 117.441C99.2008 117.441 117.109 99.5328 117.109 77.4414C117.109 55.35 99.2008 37.4414 77.1094 37.4414C55.018 37.4414 37.1094 55.35 37.1094 77.4414C37.1094 99.5328 55.018 117.441 77.1094 117.441Z" fill="white"/>
<path d="M77.1094 57.4414C73.1538 57.4414 69.287 58.6144 65.998 60.812C62.709 63.0096 60.1455 66.1332 58.6318 69.7877C57.118 73.4423 56.722 77.4636 57.4937 81.3432C58.2654 85.2228 60.1702 88.7865 62.9672 91.5835C65.7643 94.3806 69.328 96.2854 73.2076 97.0571C77.0872 97.8288 81.1085 97.4327 84.763 95.919C88.4176 94.4052 91.5411 91.8418 93.7388 88.5528C95.9364 85.2638 97.1094 81.397 97.1094 77.4414C97.1034 72.1389 94.9943 67.0553 91.2449 63.3059C87.4955 59.5565 82.4119 57.4474 77.1094 57.4414ZM77.1094 94.5358C73.7284 94.5358 70.4234 93.5332 67.6122 91.6549C64.8011 89.7765 62.6101 87.1067 61.3162 83.9831C60.0224 80.8596 59.6839 77.4224 60.3435 74.1065C61.003 70.7905 62.6311 67.7445 65.0218 65.3538C67.4125 62.9631 70.4584 61.3351 73.7744 60.6755C77.0904 60.0159 80.5275 60.3544 83.6511 61.6482C86.7747 62.9421 89.4445 65.1331 91.3228 67.9443C93.2012 70.7554 94.2038 74.0605 94.2038 77.4414C94.1986 81.9735 92.396 86.3186 89.1913 89.5233C85.9866 92.728 81.6415 94.5307 77.1094 94.5358Z" fill="#2F352B"/>
<path d="M77.1096 69.1762C77.9979 69.1772 78.8495 69.5305 79.4776 70.1586C80.1057 70.7868 80.459 71.6384 80.4599 72.5267C80.4599 72.912 80.613 73.2815 80.8855 73.554C81.1579 73.8264 81.5274 73.9795 81.9127 73.9795C82.298 73.9795 82.6676 73.8264 82.94 73.554C83.2125 73.2815 83.3655 72.912 83.3655 72.5267C83.3637 71.1207 82.889 69.7563 82.0178 68.6527C81.1466 67.5492 79.9295 66.7708 78.5624 66.4427V65.0934C78.5624 64.7081 78.4093 64.3386 78.1369 64.0661C77.8644 63.7937 77.4949 63.6406 77.1096 63.6406C76.7243 63.6406 76.3548 63.7937 76.0823 64.0661C75.8099 64.3386 75.6568 64.7081 75.6568 65.0934V66.4427C74.1662 66.7985 72.858 67.689 71.9805 68.9454C71.103 70.2019 70.7173 71.7367 70.8964 73.2586C71.0756 74.7806 71.8073 76.1839 72.9526 77.2021C74.0979 78.2204 75.5771 78.7828 77.1096 78.7826C77.7723 78.7826 78.4201 78.9791 78.9711 79.3472C79.5221 79.7153 79.9516 80.2386 80.2052 80.8508C80.4588 81.4631 80.5252 82.1368 80.3959 82.7867C80.2667 83.4367 79.9476 84.0337 79.479 84.5023C79.0104 84.9709 78.4134 85.29 77.7635 85.4193C77.1136 85.5486 76.4399 85.4822 75.8276 85.2287C75.2154 84.9751 74.6921 84.5456 74.3239 83.9946C73.9558 83.4436 73.7592 82.7958 73.7592 82.1332C73.7592 81.7479 73.6062 81.3783 73.3337 81.1059C73.0613 80.8334 72.6918 80.6804 72.3064 80.6804C71.9211 80.6804 71.5516 80.8334 71.2792 81.1059C71.0067 81.3783 70.8536 81.7479 70.8536 82.1332C70.8555 83.5391 71.3303 84.9035 72.2015 86.007C73.0726 87.1105 74.2897 87.8889 75.6568 88.2169V89.7911C75.6568 90.1764 75.8099 90.5459 76.0823 90.8183C76.3548 91.0908 76.7243 91.2439 77.1096 91.2439C77.4949 91.2439 77.8644 91.0908 78.1369 90.8183C78.4093 90.5459 78.5624 90.1764 78.5624 89.7911V88.2169C80.053 87.8612 81.3612 86.9706 82.2387 85.7142C83.1162 84.4578 83.5019 82.923 83.3227 81.401C83.1436 79.879 82.4119 78.4758 81.2666 77.4575C80.1213 76.4393 78.6421 75.8769 77.1096 75.877C76.221 75.877 75.3688 75.524 74.7404 74.8957C74.1121 74.2673 73.7591 73.4151 73.7591 72.5265C73.7591 71.6379 74.1121 70.7857 74.7404 70.1573C75.3688 69.529 76.221 69.1762 77.1096 69.1762Z" fill="#2F352B"/>
</g>
<defs>
<clipPath id="clip0_3551_25">
<rect width="155" height="155" fill="white"/>
</clipPath>
</defs>
</svg>
