<svg width="64" height="64" viewBox="0 0 64 64" fill="none" xmlns="http://www.w3.org/2000/svg">
<g clip-path="url(#clip0_3554_223)">
<mask id="mask0_3554_223" style="mask-type:luminance" maskUnits="userSpaceOnUse" x="0" y="0" width="64" height="64">
<path d="M64 0H0V64H64V0Z" fill="white"/>
</mask>
<g mask="url(#mask0_3554_223)">
<path d="M61.2577 52.4832C61.1564 51.9702 60.9108 51.4924 60.5612 51.1044L45.6404 34.547C44.4366 33.2114 42.2711 33.2221 41.0805 34.5699L34.4217 42.1091V4.385C34.4217 1.96713 32.4547 0 30.0368 0H7.07335C4.65548 0 2.68848 1.96713 2.68848 4.385V4.8745C2.68848 5.56487 3.24823 6.1245 3.93848 6.1245C4.62873 6.1245 5.18848 5.56487 5.18848 4.8745V4.385C5.18848 3.34563 6.0341 2.5 7.07335 2.5H13.2324L15.2739 5.68738C15.9334 6.71712 17.0191 7.332 18.1777 7.332C19.3363 7.332 20.4218 6.71725 21.0813 5.68738L23.1231 2.5H30.0367C31.0759 2.5 31.9216 3.34563 31.9216 4.385V44.9396L26.4576 51.1259C25.8822 51.7771 25.6387 52.6134 25.7563 53.4357H7.07335C6.0341 53.4357 5.18848 52.5907 5.18848 51.5521V15.831C5.18848 15.1406 4.62873 14.581 3.93848 14.581C3.24823 14.581 2.68848 15.1406 2.68848 15.831V51.552C2.68848 53.9691 4.65548 55.9356 7.07335 55.9356H31.9219V62.75C31.9219 63.4404 32.4817 64 33.1719 64H42.9623C43.6629 64 44.2406 63.3979 44.2112 62.6974C44.1779 61.95 43.5001 61.3753 42.7532 61.5H34.4219V54.6856C34.4219 53.9952 33.8622 53.4356 33.1719 53.4356H28.6264C28.2909 53.4356 28.1082 53.0334 28.3313 52.7809L42.9542 36.225C43.1716 35.979 43.5636 35.9769 43.7834 36.2207L58.7041 52.778C58.9307 53.0295 58.7487 53.4357 58.4113 53.4357H54.0382C53.3479 53.4357 52.7882 53.9954 52.7882 54.6857V62.75C52.7882 63.4404 53.3479 64 54.0382 64C54.7284 64 55.2882 63.4404 55.2882 62.75V55.9356H58.4113C60.202 55.9356 61.6064 54.2513 61.2577 52.4832ZM18.9763 4.33887C18.7727 4.65675 18.4892 4.83187 18.1778 4.83187C17.8664 4.83187 17.5828 4.65687 17.3792 4.33887L16.2016 2.50038H20.1538L18.9763 4.33887Z" fill="#2F352B"/>
<path d="M16.6842 18.5023C13.7097 20.1228 11.0725 20.6729 11.0126 20.6852C10.3358 20.8202 9.89645 21.4779 10.0311 22.1548C10.1638 22.8228 10.8326 23.2699 11.5008 23.1371C11.6215 23.1131 14.4922 22.5293 17.8086 20.7364C21.2925 18.8532 23.9697 16.3248 25.6781 13.3313L26.1471 14.3722C26.4268 14.9931 27.1787 15.2783 27.8002 14.9983C28.4297 14.7147 28.71 13.9746 28.4265 13.3452L26.8332 9.80895C26.5975 9.28457 26.0131 8.98508 25.4503 9.09633L21.9467 9.7917C21.2695 9.92607 20.8295 10.5839 20.964 11.2611C21.0983 11.9383 21.7577 12.3783 22.4333 12.2438L23.5528 12.0217C22.0953 14.6339 19.7943 16.8079 16.6842 18.5023Z" fill="#2F352B"/>
<path d="M8.76758 34.2387C8.76758 34.9291 9.32733 35.4887 10.0176 35.4887H27.1621C27.8523 35.4887 28.4121 34.9291 28.4121 34.2387C28.4121 33.5483 27.8523 32.9887 27.1621 32.9887H25.5486V21.5176C25.5486 20.8272 24.9888 20.2676 24.2986 20.2676C23.6083 20.2676 23.0486 20.8272 23.0486 21.5176V32.9887H19.7153V25.1571C19.7153 24.4667 19.1556 23.9071 18.4653 23.9071C17.7751 23.9071 17.2153 24.4667 17.2153 25.1571V32.9887H14.0558V27.125C14.0558 26.4346 13.4961 25.875 12.8058 25.875C12.1156 25.875 11.5558 26.4346 11.5558 27.125V32.9887H10.0176C9.32721 32.9887 8.76758 33.5483 8.76758 34.2387Z" fill="#2F352B"/>
<path d="M4.27252 11.3857C4.79765 11.2395 5.17427 10.7574 5.18877 10.212C5.2184 9.09878 3.80665 8.50953 3.03565 9.31728C2.63365 9.73853 2.58127 10.3907 2.89952 10.8763C3.19502 11.3202 3.7599 11.5284 4.27252 11.3857Z" fill="#2F352B"/>
<path d="M12.0008 47.3757H25.0116C27.3626 47.3757 29.2752 45.4631 29.2752 43.1121C29.2752 40.7611 27.3625 38.8486 25.0116 38.8486H12.0008C9.6498 38.8486 7.7373 40.7612 7.7373 43.1121C7.7373 45.463 9.6498 47.3757 12.0008 47.3757ZM12.0008 41.3486H25.0116C25.9841 41.3486 26.7752 42.1397 26.7752 43.1121C26.7752 44.0846 25.9841 44.8757 25.0116 44.8757H12.0008C11.0285 44.8757 10.2373 44.0846 10.2373 43.1121C10.2373 42.1397 11.0285 41.3486 12.0008 41.3486Z" fill="#2F352B"/>
<path d="M49.2635 61.7109C48.32 61.0822 47.063 61.9932 47.3665 63.0827C47.5096 63.5966 47.975 63.9704 48.5086 63.9981C49.0396 64.0256 49.5462 63.6946 49.7355 63.1987C49.94 62.6626 49.7473 62.0277 49.2635 61.7109Z" fill="#2F352B"/>
<path d="M47.8886 53.9221C48.2221 51.9388 47.1863 50.2149 45.2496 49.5304C45.0528 49.4608 44.852 49.3886 44.6513 49.3138V45.7749C44.8034 45.8293 44.9509 45.8978 45.0898 45.9806C45.3628 46.1432 45.5868 46.3108 45.9095 46.3583C46.2575 46.4094 46.5868 46.2914 46.8139 46.0198C47.4469 45.2623 46.7523 44.5707 46.7523 44.5707C46.704 44.5262 45.9273 43.8262 44.6513 43.5803V42.9502C44.6513 42.3634 44.1755 41.8877 43.5888 41.8877C43.002 41.8877 42.5263 42.3634 42.5263 42.9502V43.6547C42.4518 43.6737 42.3768 43.6941 42.3008 43.7171C41.0161 44.1039 40.0568 45.2008 39.797 46.5796C39.5588 47.8438 39.9685 49.0668 40.8666 49.7712C41.2965 50.1084 41.8213 50.4174 42.5263 50.7393V55.4077C42.0118 55.3394 41.6275 55.1709 41.0248 54.7767C40.5336 54.4556 39.8751 54.5933 39.5539 55.0842C39.2326 55.5753 39.3703 56.2338 39.8614 56.5551C40.9034 57.2367 41.6359 57.4716 42.5261 57.5451V58.2513C42.5261 58.8381 43.0019 59.3138 43.5886 59.3138C44.1754 59.3138 44.6511 58.8381 44.6511 58.2513V57.4447C46.4676 56.9944 47.6321 55.4474 47.8886 53.9221ZM42.178 48.0992C41.9106 47.8894 41.7956 47.4476 41.885 46.9731C41.9525 46.6151 42.1548 46.1996 42.5261 45.9399V48.3402C42.4001 48.2614 42.2826 48.1812 42.178 48.0992ZM45.793 53.5698C45.6895 54.1851 45.3025 54.8341 44.6511 55.1857V51.5757C45.8971 52.0751 45.8669 53.1302 45.793 53.5698Z" fill="#2F352B"/>
</g>
</g>
<defs>
<clipPath id="clip0_3554_223">
<rect width="64" height="64" fill="white"/>
</clipPath>
</defs>
</svg>
