<svg width="64" height="64" viewBox="0 0 64 64" fill="none" xmlns="http://www.w3.org/2000/svg">
<g clip-path="url(#clip0_3554_212)">
<mask id="mask0_3554_212" style="mask-type:luminance" maskUnits="userSpaceOnUse" x="0" y="0" width="64" height="64">
<path d="M64 0H0V64H64V0Z" fill="white"/>
</mask>
<g mask="url(#mask0_3554_212)">
<path d="M32 0C14.3552 0 0 14.3563 0 32.0011C0 49.6459 14.3552 64.0011 32 64.0011C49.6448 64.0011 64 49.6459 64 32.0011C64 14.3563 49.6448 0 32 0ZM61.84 30.9333H33.0667V2.16107C48.688 2.7136 61.2875 15.312 61.84 30.9333ZM13.2416 33.0667H19.8251L6.08107 46.8107C5.26293 45.3856 4.55467 43.8901 3.9776 42.3307L13.2416 33.0667ZM3.24373 40.048C2.6176 37.8144 2.24533 35.4773 2.16 33.0667H10.2251L3.24373 40.048ZM22.8416 33.0667H29.4251L10.1547 52.3371C9.09013 51.1947 8.10987 49.9733 7.23307 48.6752L22.8416 33.0667ZM30.9333 34.5749V41.1584L15.3248 56.7669C14.0267 55.8901 12.8053 54.9099 11.6629 53.8453L30.9333 34.5749ZM30.9333 44.1749V50.7584L21.6693 60.0224C20.1099 59.4453 18.6144 58.736 17.1893 57.9189L30.9333 44.1749ZM30.9333 53.7749V61.84C28.5227 61.7547 26.1856 61.3824 23.952 60.7563L30.9333 53.7749ZM30.9333 2.16V30.9333H2.16107C2.71253 15.3131 15.3131 2.71253 30.9333 2.16ZM33.0667 61.8389V33.0656H61.84C61.2875 48.6869 48.688 61.2864 33.0667 61.8389Z" fill="#2F352B"/>
<path d="M7.46683 28.8016H9.60017C10.7767 28.8016 11.7335 27.8448 11.7335 26.6683V23.4683C11.7335 22.2918 10.7767 21.335 9.60017 21.335H7.46683C6.2903 21.335 5.3335 22.2918 5.3335 23.4683V26.6683C5.3335 27.8448 6.2903 28.8016 7.46683 28.8016ZM7.46683 23.4683H9.60017L9.6023 26.6683H7.46683V23.4683Z" fill="#2F352B"/>
<path d="M16 28.801H18.1333C19.3099 28.801 20.2667 27.8442 20.2667 26.6676V18.1343C20.2667 16.9578 19.3099 16.001 18.1333 16.001H16C14.8235 16.001 13.8667 16.9578 13.8667 18.1343V26.6676C13.8667 27.8442 14.8235 28.801 16 28.801ZM16 18.1343H18.1333L18.1355 26.6676H16V18.1343Z" fill="#2F352B"/>
<path d="M24.5332 28.8006H26.6666C27.8431 28.8006 28.7999 27.8438 28.7999 26.6672V11.7339C28.7999 10.5574 27.8431 9.60059 26.6666 9.60059H24.5332C23.3567 9.60059 22.3999 10.5574 22.3999 11.7339V26.6672C22.3999 27.8438 23.3567 28.8006 24.5332 28.8006ZM24.5332 11.7339H26.6666L26.6687 26.6672H24.5332V11.7339Z" fill="#2F352B"/>
<path d="M35.5125 27.4218C35.7205 27.6298 35.9936 27.7343 36.2667 27.7343C36.5397 27.7343 36.8128 27.6298 37.0208 27.4218L42.6667 21.7759L46.1792 25.2884C46.5963 25.7055 47.2704 25.7055 47.6875 25.2884L53.3333 19.6426V22.401C53.3333 22.9908 53.8101 23.4676 54.4 23.4676C54.9899 23.4676 55.4667 22.9908 55.4667 22.401V17.0676C55.4667 16.4778 54.9899 16.001 54.4 16.001H49.0667C48.4768 16.001 48 16.4778 48 17.0676C48 17.6575 48.4768 18.1343 49.0667 18.1343H51.8251L46.9333 23.026L43.4208 19.5135C43.0037 19.0964 42.3296 19.0964 41.9125 19.5135L35.5125 25.9135C35.0955 26.3306 35.0955 27.0047 35.5125 27.4218Z" fill="#2F352B"/>
<path d="M47.0125 43.1632C47.2322 43.7094 47.8551 43.9718 48.4023 43.751C48.9485 43.5291 49.2109 42.9072 48.9901 42.3611C48.3725 40.8379 46.8098 39.8139 44.8013 39.5451V38.4016C44.8013 37.8118 44.3245 37.335 43.7346 37.335C43.1447 37.335 42.6679 37.8118 42.6679 38.4016V39.5419C40.205 39.879 38.4013 41.3648 38.4013 43.2016C38.4013 45.7275 40.6487 46.4144 42.6679 46.7739V50.0347C41.5767 49.8267 40.7511 49.2998 40.4567 48.5734C40.2359 48.0272 39.6109 47.7638 39.0669 47.9856C38.5207 48.2075 38.2583 48.8294 38.4791 49.3755C39.0967 50.8987 40.6594 51.9227 42.6679 52.1915V53.335C42.6679 53.9248 43.1447 54.4016 43.7346 54.4016C44.3245 54.4016 44.8013 53.9248 44.8013 53.335V52.1947C47.2642 51.8576 49.0679 50.3718 49.0679 48.535C49.0679 46.0091 46.8205 45.3222 44.8013 44.9627V41.7019C45.8925 41.9099 46.7181 42.4368 47.0125 43.1632ZM40.5346 43.2016C40.5346 42.6171 41.4135 41.9643 42.6679 41.7136V44.5968C41.1298 44.2886 40.5346 43.9494 40.5346 43.2016ZM46.9346 48.535C46.9346 49.1195 46.0557 49.7723 44.8013 50.023V47.1398C46.3394 47.448 46.9346 47.7872 46.9346 48.535Z" fill="#2F352B"/>
</g>
</g>
<defs>
<clipPath id="clip0_3554_212">
<rect width="64" height="64" fill="white"/>
</clipPath>
</defs>
</svg>
